<?xml version="1.0" encoding="iso-8859-1"?>
<!-- Generator: Adobe Illustrator 19.0.0, SVG Export Plug-In . SVG Version: 6.00 Build 0)  -->
<svg version="1.1" id="Layer_1" xmlns="http://www.w3.org/2000/svg" xmlns:xlink="http://www.w3.org/1999/xlink" x="0px" y="0px"
	 viewBox="0 0 481.8 481.8" style="enable-background:new 0 0 481.8 481.8;" xml:space="preserve">
<g>
	<path style="fill:#3A556A;" d="M451.7,26.5h-88.5h-20.5v119.9c6,0,15-0.6,20.5-1.8C413.2,134.9,451.7,85.5,451.7,26.5z"/>
	<path style="fill:#3A556A;" d="M342.7,181.3v119.9c6,0,15-0.6,20.5-1.8c50-9.6,88.5-59,88.5-118.1h-88.5H342.7z"/>
	<path style="fill:#3A556A;" d="M342.7,336.1v119.8c6,0,15-0.6,20.5-1.8l0,0c50-9.6,88.5-58.4,88.5-118.1h-88.5h-20.5V336.1z"/>
	<path style="fill:#3A556A;" d="M30.1,26.5c0,59.6,38.6,108.4,88.5,118.1c5.4,1.2,14.4,1.8,20.5,1.8V26.5h-20.5H30.1z"/>
	<path style="fill:#3A556A;" d="M30.1,181.3c0,59.6,38.6,108.4,88.5,118.1c5.4,1.2,14.4,1.8,20.5,1.8V181.3h-20.5H30.1z"/>
	<path style="fill:#3A556A;" d="M30.1,336.1c0,59.6,38.6,108.4,88.5,118.1c5.4,1.2,14.4,1.8,20.5,1.8V336.1h-20.5H30.1z"/>
</g>
<path style="fill:#64798A;" d="M333.7,481.8H148.1c-6.6,0-12-5.4-12-12V12c0-6.6,5.4-12,12-12H333c6.6,0,12,5.4,12,12v457.8
	C345.7,476.4,340.3,481.8,333.7,481.8z"/>
<g>
	<circle style="fill:#3A556A;" cx="240.9" cy="92.1" r="59.6"/>
	<circle style="fill:#3A556A;" cx="240.9" cy="247.5" r="59.6"/>
	<circle style="fill:#3A556A;" cx="240.9" cy="402.3" r="59.6"/>
</g>
<circle style="fill:#E56353;" cx="240.9" cy="86.1" r="59.6"/>
<circle style="fill:#44C4A1;" cx="240.9" cy="240.9" r="59.6"/>
<circle style="fill:#FCD462;" cx="240.9" cy="395.7" r="59.6"/>
<path style="fill:#D15241;" d="M211.4,137.9c-9-10.2-14.5-24.1-14.5-39.2c0-33.1,26.5-59.6,59.6-59.6c10.8,0,21.1,3,29.5,7.8
	c-10.8-12.6-27.1-20.5-45.2-20.5c-33.1,0-59.6,26.5-59.6,59.6C181.3,108.4,193.3,127.7,211.4,137.9z"/>
<path style="fill:#3EA69B;" d="M256.6,193.9c10.8,0,21.1,3,29.5,7.8c-10.8-12.6-27.1-20.5-45.2-20.5c-33.1,0-59.6,26.5-59.6,59.6
	c0,22.3,12,41.6,30.1,51.8c-9-10.2-14.5-24.1-14.5-39.2C196.3,220.4,223.4,193.9,256.6,193.9z"/>
<path style="fill:#F6C358;" d="M256.6,348.7c10.8,0,21.1,3,29.5,7.8C275.3,343.9,259,336,240.9,336c-33.1,0-59.6,26.5-59.6,59.6
	c0,22.3,12,41.6,30.1,51.8c-9-10.2-14.5-24.1-14.5-39.2C196.3,375.2,223.4,348.7,256.6,348.7z"/>
<g>
</g>
<g>
</g>
<g>
</g>
<g>
</g>
<g>
</g>
<g>
</g>
<g>
</g>
<g>
</g>
<g>
</g>
<g>
</g>
<g>
</g>
<g>
</g>
<g>
</g>
<g>
</g>
<g>
</g>
</svg>
